<svg width="390" height="844" viewBox="0 0 390 844" fill="none" xmlns="http://www.w3.org/2000/svg">
<rect width="390" height="844" fill="white"/>
<g clip-path="url(#clip0_27_58)">
<rect width="390" height="844" fill="#F7FAFC"/>
<rect width="390" height="72" fill="#F7FAFC"/>
<g clip-path="url(#clip1_27_58)">
<path fill-rule="evenodd" clip-rule="evenodd" d="M37 40C37 40.4142 36.6642 40.75 36.25 40.75H21.5603L27.0306 46.2194C27.3237 46.5124 27.3237 46.9876 27.0306 47.2806C26.7376 47.5737 26.2624 47.5737 25.9694 47.2806L19.2194 40.5306C19.0785 40.3899 18.9994 40.1991 18.9994 40C18.9994 39.8009 19.0785 39.6101 19.2194 39.4694L25.9694 32.7194C26.2624 32.4263 26.7376 32.4263 27.0306 32.7194C27.3237 33.0124 27.3237 33.4876 27.0306 33.7806L21.5603 39.25H36.25C36.6642 39.25 37 39.5858 37 40Z" fill="#0D141C"/>
</g>
<path d="M138.041 46.5V33.54H143.396C143.522 33.54 143.684 33.546 143.882 33.558C144.08 33.564 144.263 33.582 144.431 33.612C145.181 33.726 145.799 33.975 146.285 34.359C146.777 34.743 147.14 35.229 147.374 35.817C147.614 36.399 147.734 37.047 147.734 37.761C147.734 38.469 147.614 39.117 147.374 39.705C147.134 40.287 146.768 40.77 146.276 41.154C145.79 41.538 145.175 41.787 144.431 41.901C144.263 41.925 144.077 41.943 143.873 41.955C143.675 41.967 143.516 41.973 143.396 41.973H140.21V46.5H138.041ZM140.21 39.948H143.306C143.426 39.948 143.561 39.942 143.711 39.93C143.861 39.918 143.999 39.894 144.125 39.858C144.485 39.768 144.767 39.609 144.971 39.381C145.181 39.153 145.328 38.895 145.412 38.607C145.502 38.319 145.547 38.037 145.547 37.761C145.547 37.485 145.502 37.203 145.412 36.915C145.328 36.621 145.181 36.36 144.971 36.132C144.767 35.904 144.485 35.745 144.125 35.655C143.999 35.619 143.861 35.598 143.711 35.592C143.561 35.58 143.426 35.574 143.306 35.574H140.21V39.948ZM153.956 46.77C152.972 46.77 152.108 46.557 151.364 46.131C150.62 45.705 150.038 45.114 149.618 44.358C149.204 43.602 148.997 42.732 148.997 41.748C148.997 40.686 149.201 39.765 149.609 38.985C150.017 38.199 150.584 37.59 151.31 37.158C152.036 36.726 152.876 36.51 153.83 36.51C154.838 36.51 155.693 36.747 156.395 37.221C157.103 37.689 157.628 38.352 157.97 39.21C158.312 40.068 158.441 41.079 158.357 42.243H156.206V41.451C156.2 40.395 156.014 39.624 155.648 39.138C155.282 38.652 154.706 38.409 153.92 38.409C153.032 38.409 152.372 38.685 151.94 39.237C151.508 39.783 151.292 40.584 151.292 41.64C151.292 42.624 151.508 43.386 151.94 43.926C152.372 44.466 153.002 44.736 153.83 44.736C154.364 44.736 154.823 44.619 155.207 44.385C155.597 44.145 155.897 43.8 156.107 43.35L158.249 43.998C157.877 44.874 157.301 45.555 156.521 46.041C155.747 46.527 154.892 46.77 153.956 46.77ZM150.608 42.243V40.605H157.295V42.243H150.608ZM160.365 46.5V36.78H167.295V38.814H162.534V46.5H160.365ZM177.438 36.78V46.5H175.359V40.155L170.733 46.5H168.996V36.78H171.075V42.963L175.719 36.78H177.438ZM184.186 46.77C183.184 46.77 182.329 46.548 181.621 46.104C180.913 45.654 180.37 45.042 179.992 44.268C179.62 43.494 179.431 42.618 179.425 41.64C179.431 40.644 179.626 39.762 180.01 38.994C180.4 38.22 180.952 37.614 181.666 37.176C182.38 36.732 183.229 36.51 184.213 36.51C185.317 36.51 186.25 36.789 187.012 37.347C187.78 37.899 188.281 38.655 188.515 39.615L186.355 40.2C186.187 39.678 185.908 39.273 185.518 38.985C185.128 38.691 184.684 38.544 184.186 38.544C183.622 38.544 183.157 38.679 182.791 38.949C182.425 39.213 182.155 39.579 181.981 40.047C181.807 40.515 181.72 41.046 181.72 41.64C181.72 42.564 181.927 43.311 182.341 43.881C182.755 44.451 183.37 44.736 184.186 44.736C184.762 44.736 185.215 44.604 185.545 44.34C185.881 44.076 186.133 43.695 186.301 43.197L188.515 43.692C188.215 44.682 187.69 45.444 186.94 45.978C186.19 46.506 185.272 46.77 184.186 46.77ZM192.705 46.5V38.706H189.456V36.78H198.123V38.706H194.874V46.5H192.705ZM204.499 46.77C203.551 46.77 202.756 46.545 202.114 46.095C201.472 45.645 200.989 45.033 200.665 44.259C200.341 43.479 200.179 42.606 200.179 41.64C200.179 40.662 200.341 39.786 200.665 39.012C200.989 38.238 201.463 37.629 202.087 37.185C202.717 36.735 203.494 36.51 204.418 36.51C205.336 36.51 206.131 36.735 206.803 37.185C207.481 37.629 208.006 38.238 208.378 39.012C208.75 39.78 208.936 40.656 208.936 41.64C208.936 42.612 208.753 43.485 208.387 44.259C208.021 45.033 207.505 45.645 206.839 46.095C206.173 46.545 205.393 46.77 204.499 46.77ZM199.81 50.82V36.78H201.727V43.602H201.997V50.82H199.81ZM204.166 44.826C204.73 44.826 205.195 44.685 205.561 44.403C205.927 44.121 206.197 43.74 206.371 43.26C206.551 42.774 206.641 42.234 206.641 41.64C206.641 41.052 206.551 40.518 206.371 40.038C206.191 39.552 205.912 39.168 205.534 38.886C205.156 38.598 204.676 38.454 204.094 38.454C203.542 38.454 203.092 38.589 202.744 38.859C202.396 39.123 202.138 39.495 201.97 39.975C201.808 40.449 201.727 41.004 201.727 41.64C201.727 42.27 201.808 42.825 201.97 43.305C202.138 43.785 202.399 44.16 202.753 44.43C203.113 44.694 203.584 44.826 204.166 44.826ZM213.638 46.77C212.936 46.77 212.342 46.638 211.856 46.374C211.37 46.104 211.001 45.747 210.749 45.303C210.503 44.859 210.38 44.37 210.38 43.836C210.38 43.368 210.458 42.948 210.614 42.576C210.77 42.198 211.01 41.874 211.334 41.604C211.658 41.328 212.078 41.103 212.594 40.929C212.984 40.803 213.44 40.689 213.962 40.587C214.49 40.485 215.06 40.392 215.672 40.308C216.29 40.218 216.935 40.122 217.607 40.02L216.833 40.461C216.839 39.789 216.689 39.294 216.383 38.976C216.077 38.658 215.561 38.499 214.835 38.499C214.397 38.499 213.974 38.601 213.566 38.805C213.158 39.009 212.873 39.36 212.711 39.858L210.731 39.237C210.971 38.415 211.427 37.755 212.099 37.257C212.777 36.759 213.689 36.51 214.835 36.51C215.699 36.51 216.458 36.651 217.112 36.933C217.772 37.215 218.261 37.677 218.579 38.319C218.753 38.661 218.858 39.012 218.894 39.372C218.93 39.726 218.948 40.113 218.948 40.533V46.5H217.049V44.394L217.364 44.736C216.926 45.438 216.413 45.954 215.825 46.284C215.243 46.608 214.514 46.77 213.638 46.77ZM214.07 45.042C214.562 45.042 214.982 44.955 215.33 44.781C215.678 44.607 215.954 44.394 216.158 44.142C216.368 43.89 216.509 43.653 216.581 43.431C216.695 43.155 216.758 42.84 216.77 42.486C216.788 42.126 216.797 41.835 216.797 41.613L217.463 41.811C216.809 41.913 216.248 42.003 215.78 42.081C215.312 42.159 214.91 42.234 214.574 42.306C214.238 42.372 213.941 42.447 213.683 42.531C213.431 42.621 213.218 42.726 213.044 42.846C212.87 42.966 212.735 43.104 212.639 43.26C212.549 43.416 212.504 43.599 212.504 43.809C212.504 44.049 212.564 44.262 212.684 44.448C212.804 44.628 212.978 44.772 213.206 44.88C213.44 44.988 213.728 45.042 214.07 45.042ZM229.427 48.543V46.5H221.273V36.78H223.442V44.466H227.546V36.78H229.715V44.574H231.596V48.543H229.427ZM241.457 36.78V46.5H239.378V40.155L234.752 46.5H233.015V36.78H235.094V42.963L239.738 36.78H241.457ZM249.799 46.5V43.26H248.062C247.84 43.26 247.561 43.254 247.225 43.242C246.895 43.23 246.586 43.2 246.298 43.152C245.548 43.014 244.927 42.687 244.435 42.171C243.943 41.649 243.697 40.941 243.697 40.047C243.697 39.171 243.931 38.466 244.399 37.932C244.867 37.398 245.476 37.056 246.226 36.906C246.538 36.84 246.859 36.804 247.189 36.798C247.525 36.786 247.804 36.78 248.026 36.78H251.968V46.5H249.799ZM243.445 46.5L245.767 42.783H248.026L245.722 46.5H243.445ZM247.837 41.559H249.799V38.481H247.837C247.723 38.481 247.585 38.487 247.423 38.499C247.261 38.511 247.099 38.538 246.937 38.58C246.763 38.634 246.598 38.727 246.442 38.859C246.286 38.991 246.157 39.156 246.055 39.354C245.953 39.552 245.902 39.777 245.902 40.029C245.902 40.407 246.01 40.722 246.226 40.974C246.448 41.22 246.706 41.385 247 41.469C247.144 41.505 247.291 41.529 247.441 41.541C247.597 41.553 247.729 41.559 247.837 41.559Z" fill="#0D141C"/>
<rect x="16" y="84" width="358" height="56" rx="8" fill="#E8EDF5"/>
<path d="M41.832 118H40.648V108.552L34.304 118H33.12V106.48H34.304V115.92L40.648 106.48H41.832V118ZM44.0651 118V109.36H45.1131L48.4811 116.432L51.8571 109.36H52.8971V118H51.7611V111.872L48.8571 118H48.1131L45.2091 111.872V118H44.0651ZM60.5516 118V114.744H58.5356C58.301 114.744 58.0583 114.736 57.8076 114.72C57.5623 114.699 57.333 114.669 57.1196 114.632C56.5116 114.515 55.9943 114.248 55.5676 113.832C55.1463 113.411 54.9356 112.829 54.9356 112.088C54.9356 111.363 55.133 110.781 55.5276 110.344C55.9223 109.901 56.3996 109.613 56.9596 109.48C57.2156 109.421 57.4743 109.387 57.7356 109.376C58.0023 109.365 58.2316 109.36 58.4236 109.36H61.7276L61.7356 118H60.5516ZM54.6556 118L57.0636 114.376H58.3676L55.9436 118H54.6556ZM58.4716 113.736H60.5516V110.368H58.4716C58.3436 110.368 58.165 110.373 57.9356 110.384C57.7063 110.395 57.4903 110.429 57.2876 110.488C57.1116 110.541 56.9356 110.635 56.7596 110.768C56.589 110.896 56.445 111.069 56.3276 111.288C56.2103 111.501 56.1516 111.763 56.1516 112.072C56.1516 112.504 56.269 112.851 56.5036 113.112C56.7436 113.368 57.0423 113.544 57.3996 113.64C57.5916 113.683 57.7836 113.709 57.9756 113.72C58.1676 113.731 58.333 113.736 58.4716 113.736ZM67.1745 118V109.36H74.0465V118H72.8705V110.488H68.3505V118H67.1745ZM79.8999 118.24C79.0412 118.24 78.3079 118.045 77.6999 117.656C77.0919 117.267 76.6252 116.728 76.2999 116.04C75.9745 115.352 75.8119 114.563 75.8119 113.672C75.8119 112.765 75.9772 111.971 76.3079 111.288C76.6385 110.605 77.1079 110.075 77.7159 109.696C78.3292 109.312 79.0572 109.12 79.8999 109.12C80.7639 109.12 81.4999 109.315 82.1079 109.704C82.7212 110.088 83.1879 110.624 83.5079 111.312C83.8332 111.995 83.9959 112.781 83.9959 113.672C83.9959 114.579 83.8332 115.376 83.5079 116.064C83.1825 116.747 82.7132 117.28 82.0999 117.664C81.4865 118.048 80.7532 118.24 79.8999 118.24ZM79.8999 117.112C80.8599 117.112 81.5745 116.795 82.0439 116.16C82.5132 115.52 82.7479 114.691 82.7479 113.672C82.7479 112.627 82.5105 111.795 82.0359 111.176C81.5665 110.557 80.8545 110.248 79.8999 110.248C79.2545 110.248 78.7212 110.395 78.2999 110.688C77.8839 110.976 77.5719 111.379 77.3639 111.896C77.1612 112.408 77.0599 113 77.0599 113.672C77.0599 114.712 77.2999 115.547 77.7799 116.176C78.2599 116.8 78.9665 117.112 79.8999 117.112ZM84.9606 118V116.968C85.2806 117.027 85.5233 117.013 85.6886 116.928C85.8593 116.837 85.9846 116.688 86.0646 116.48C86.1446 116.267 86.2113 116.003 86.2646 115.688C86.35 115.165 86.4273 114.589 86.4966 113.96C86.566 113.331 86.6273 112.637 86.6806 111.88C86.7393 111.117 86.798 110.277 86.8566 109.36H92.7286V118H91.5606V110.488H87.9446C87.9073 111.053 87.8646 111.616 87.8166 112.176C87.7686 112.736 87.718 113.275 87.6646 113.792C87.6166 114.304 87.5633 114.776 87.5046 115.208C87.446 115.64 87.3846 116.013 87.3206 116.328C87.2246 116.803 87.0966 117.181 86.9366 117.464C86.782 117.747 86.55 117.933 86.2406 118.024C85.9313 118.115 85.5046 118.107 84.9606 118ZM94.9718 118L94.9558 109.36H96.1398V112.616H98.1638C98.4144 112.616 98.6598 112.621 98.8998 112.632C99.1451 112.643 99.3611 112.664 99.5478 112.696C99.9744 112.776 100.353 112.917 100.684 113.12C101.02 113.323 101.281 113.603 101.468 113.96C101.66 114.317 101.756 114.765 101.756 115.304C101.756 116.045 101.564 116.629 101.18 117.056C100.801 117.483 100.321 117.76 99.7398 117.888C99.5211 117.936 99.2838 117.968 99.0278 117.984C98.7718 117.995 98.5184 118 98.2678 118H94.9718ZM96.1398 116.992H98.2198C98.4011 116.992 98.6038 116.987 98.8278 116.976C99.0518 116.965 99.2491 116.936 99.4198 116.888C99.7024 116.808 99.9584 116.648 100.188 116.408C100.422 116.163 100.54 115.795 100.54 115.304C100.54 114.819 100.428 114.453 100.204 114.208C99.9798 113.957 99.6811 113.792 99.3078 113.712C99.1424 113.675 98.9638 113.651 98.7718 113.64C98.5798 113.629 98.3958 113.624 98.2198 113.624H96.1398V116.992ZM106.623 118.24C105.753 118.24 104.993 118.051 104.343 117.672C103.697 117.288 103.188 116.757 102.815 116.08L103.759 115.48C104.073 116.013 104.465 116.419 104.935 116.696C105.404 116.973 105.943 117.112 106.551 117.112C107.185 117.112 107.695 116.965 108.079 116.672C108.463 116.379 108.655 115.976 108.655 115.464C108.655 115.112 108.572 114.832 108.407 114.624C108.247 114.416 108.001 114.267 107.671 114.176C107.345 114.085 106.937 114.04 106.447 114.04H105.423V113.032H106.431C107.028 113.032 107.508 112.925 107.871 112.712C108.239 112.493 108.423 112.152 108.423 111.688C108.423 111.197 108.239 110.835 107.871 110.6C107.508 110.36 107.073 110.24 106.567 110.24C106.055 110.24 105.569 110.347 105.111 110.56C104.657 110.768 104.276 111.037 103.967 111.368L103.215 110.576C103.647 110.101 104.151 109.741 104.727 109.496C105.308 109.245 105.951 109.12 106.655 109.12C107.209 109.12 107.711 109.219 108.159 109.416C108.612 109.608 108.969 109.891 109.231 110.264C109.497 110.637 109.631 111.085 109.631 111.608C109.631 112.099 109.511 112.523 109.271 112.88C109.036 113.237 108.703 113.533 108.271 113.768L108.207 113.328C108.58 113.397 108.889 113.547 109.135 113.776C109.38 114.005 109.561 114.28 109.679 114.6C109.796 114.92 109.855 115.245 109.855 115.576C109.855 116.125 109.711 116.6 109.423 117C109.14 117.395 108.753 117.701 108.263 117.92C107.777 118.133 107.231 118.24 106.623 118.24ZM115.228 118.24C114.369 118.24 113.636 118.045 113.028 117.656C112.42 117.267 111.953 116.728 111.628 116.04C111.303 115.352 111.14 114.563 111.14 113.672C111.14 112.765 111.305 111.971 111.636 111.288C111.967 110.605 112.436 110.075 113.044 109.696C113.657 109.312 114.385 109.12 115.228 109.12C116.092 109.12 116.828 109.315 117.436 109.704C118.049 110.088 118.516 110.624 118.836 111.312C119.161 111.995 119.324 112.781 119.324 113.672C119.324 114.579 119.161 115.376 118.836 116.064C118.511 116.747 118.041 117.28 117.428 117.664C116.815 118.048 116.081 118.24 115.228 118.24ZM115.228 117.112C116.188 117.112 116.903 116.795 117.372 116.16C117.841 115.52 118.076 114.691 118.076 113.672C118.076 112.627 117.839 111.795 117.364 111.176C116.895 110.557 116.183 110.248 115.228 110.248C114.583 110.248 114.049 110.395 113.628 110.688C113.212 110.976 112.9 111.379 112.692 111.896C112.489 112.408 112.388 113 112.388 113.672C112.388 114.712 112.628 115.547 113.108 116.176C113.588 116.8 114.295 117.112 115.228 117.112ZM121.081 118V109.36H124.641C124.822 109.36 125.041 109.371 125.297 109.392C125.558 109.413 125.801 109.453 126.025 109.512C126.51 109.64 126.899 109.901 127.193 110.296C127.491 110.691 127.641 111.165 127.641 111.72C127.641 112.029 127.593 112.307 127.497 112.552C127.406 112.792 127.275 113 127.105 113.176C127.025 113.267 126.937 113.347 126.841 113.416C126.745 113.48 126.651 113.533 126.561 113.576C126.731 113.608 126.915 113.683 127.113 113.8C127.422 113.981 127.657 114.227 127.817 114.536C127.977 114.84 128.057 115.211 128.057 115.648C128.057 116.24 127.915 116.723 127.633 117.096C127.35 117.469 126.971 117.725 126.497 117.864C126.283 117.923 126.051 117.96 125.801 117.976C125.555 117.992 125.323 118 125.105 118H121.081ZM122.265 117H125.049C125.161 117 125.302 116.992 125.473 116.976C125.643 116.955 125.795 116.928 125.929 116.896C126.243 116.816 126.473 116.656 126.617 116.416C126.766 116.171 126.841 115.904 126.841 115.616C126.841 115.237 126.729 114.928 126.505 114.688C126.286 114.443 125.993 114.293 125.625 114.24C125.502 114.213 125.374 114.197 125.241 114.192C125.107 114.187 124.987 114.184 124.881 114.184H122.265V117ZM122.265 113.176H124.681C124.819 113.176 124.974 113.168 125.145 113.152C125.321 113.131 125.473 113.096 125.601 113.048C125.878 112.952 126.081 112.787 126.209 112.552C126.342 112.317 126.409 112.061 126.409 111.784C126.409 111.48 126.337 111.213 126.193 110.984C126.054 110.755 125.843 110.595 125.561 110.504C125.369 110.435 125.161 110.395 124.937 110.384C124.718 110.373 124.579 110.368 124.521 110.368H122.265V113.176ZM132.123 118.24C131.473 118.24 130.926 118.123 130.483 117.888C130.046 117.653 129.718 117.341 129.499 116.952C129.281 116.563 129.171 116.139 129.171 115.68C129.171 115.211 129.265 114.811 129.451 114.48C129.643 114.144 129.902 113.869 130.227 113.656C130.558 113.443 130.939 113.28 131.371 113.168C131.809 113.061 132.291 112.968 132.819 112.888C133.353 112.803 133.873 112.731 134.379 112.672C134.891 112.608 135.339 112.547 135.723 112.488L135.307 112.744C135.323 111.891 135.158 111.259 134.811 110.848C134.465 110.437 133.862 110.232 133.003 110.232C132.411 110.232 131.91 110.365 131.499 110.632C131.094 110.899 130.809 111.32 130.643 111.896L129.499 111.56C129.697 110.787 130.094 110.187 130.691 109.76C131.289 109.333 132.065 109.12 133.019 109.12C133.809 109.12 134.478 109.269 135.027 109.568C135.582 109.861 135.974 110.288 136.203 110.848C136.31 111.099 136.379 111.379 136.411 111.688C136.443 111.997 136.459 112.312 136.459 112.632V118H135.411V115.832L135.715 115.96C135.422 116.701 134.966 117.267 134.347 117.656C133.729 118.045 132.987 118.24 132.123 118.24ZM132.259 117.224C132.809 117.224 133.289 117.125 133.699 116.928C134.11 116.731 134.441 116.461 134.691 116.12C134.942 115.773 135.105 115.384 135.179 114.952C135.243 114.675 135.278 114.371 135.283 114.04C135.289 113.704 135.291 113.453 135.291 113.288L135.739 113.52C135.339 113.573 134.905 113.627 134.435 113.68C133.971 113.733 133.513 113.795 133.059 113.864C132.611 113.933 132.206 114.016 131.843 114.112C131.598 114.181 131.361 114.28 131.131 114.408C130.902 114.531 130.713 114.696 130.563 114.904C130.419 115.112 130.347 115.371 130.347 115.68C130.347 115.931 130.409 116.173 130.531 116.408C130.659 116.643 130.862 116.837 131.139 116.992C131.422 117.147 131.795 117.224 132.259 117.224ZM140.886 118V110.448H137.822V109.36H145.126V110.448H142.062V118H140.886ZM150.307 118.24C149.465 118.24 148.734 118.053 148.115 117.68C147.502 117.307 147.025 116.781 146.683 116.104C146.342 115.427 146.171 114.632 146.171 113.72C146.171 112.776 146.339 111.96 146.675 111.272C147.011 110.584 147.483 110.053 148.091 109.68C148.705 109.307 149.427 109.12 150.259 109.12C151.113 109.12 151.841 109.317 152.443 109.712C153.046 110.101 153.502 110.661 153.811 111.392C154.121 112.123 154.262 112.995 154.235 114.008H153.035V113.592C153.014 112.472 152.771 111.627 152.307 111.056C151.849 110.485 151.177 110.2 150.291 110.2C149.363 110.2 148.651 110.501 148.155 111.104C147.665 111.707 147.419 112.565 147.419 113.68C147.419 114.768 147.665 115.613 148.155 116.216C148.651 116.813 149.353 117.112 150.259 117.112C150.878 117.112 151.417 116.971 151.875 116.688C152.339 116.4 152.705 115.987 152.971 115.448L154.067 115.872C153.726 116.624 153.222 117.208 152.555 117.624C151.894 118.035 151.145 118.24 150.307 118.24ZM147.003 114.008V113.024H153.603V114.008H147.003ZM155.211 118V116.968C155.531 117.027 155.773 117.013 155.939 116.928C156.109 116.837 156.235 116.688 156.315 116.48C156.395 116.267 156.461 116.003 156.515 115.688C156.6 115.165 156.677 114.589 156.747 113.96C156.816 113.331 156.877 112.637 156.931 111.88C156.989 111.117 157.048 110.277 157.107 109.36H162.979V118H161.811V110.488H158.195C158.157 111.053 158.115 111.616 158.067 112.176C158.019 112.736 157.968 113.275 157.915 113.792C157.867 114.304 157.813 114.776 157.755 115.208C157.696 115.64 157.635 116.013 157.571 116.328C157.475 116.803 157.347 117.181 157.187 117.464C157.032 117.747 156.8 117.933 156.491 118.024C156.181 118.115 155.755 118.107 155.211 118ZM170.63 118V114.744H168.614C168.379 114.744 168.136 114.736 167.886 114.72C167.64 114.699 167.411 114.669 167.198 114.632C166.59 114.515 166.072 114.248 165.646 113.832C165.224 113.411 165.014 112.829 165.014 112.088C165.014 111.363 165.211 110.781 165.606 110.344C166 109.901 166.478 109.613 167.038 109.48C167.294 109.421 167.552 109.387 167.814 109.376C168.08 109.365 168.31 109.36 168.502 109.36H171.806L171.814 118H170.63ZM164.734 118L167.142 114.376H168.446L166.022 118H164.734ZM168.55 113.736H170.63V110.368H168.55C168.422 110.368 168.243 110.373 168.014 110.384C167.784 110.395 167.568 110.429 167.366 110.488C167.19 110.541 167.014 110.635 166.838 110.768C166.667 110.896 166.523 111.069 166.406 111.288C166.288 111.501 166.23 111.763 166.23 112.072C166.23 112.504 166.347 112.851 166.582 113.112C166.822 113.368 167.12 113.544 167.478 113.64C167.67 113.683 167.862 113.709 168.054 113.72C168.246 113.731 168.411 113.736 168.55 113.736Z" fill="#4A739C"/>
<rect x="16" y="164" width="358" height="56" rx="8" fill="#E8EDF5"/>
<path d="M33.12 198V186.48H40.32V187.608H34.296V191.592H39.36V192.72H34.296V196.872H40.32V198H33.12ZM52.549 198L52.557 192.328C52.557 191.661 52.3703 191.139 51.997 190.76C51.629 190.376 51.1597 190.184 50.589 190.184C50.2637 190.184 49.9463 190.259 49.637 190.408C49.3277 190.557 49.0717 190.797 48.869 191.128C48.6717 191.459 48.573 191.891 48.573 192.424L47.877 192.224C47.861 191.605 47.981 191.064 48.237 190.6C48.4983 190.136 48.8557 189.776 49.309 189.52C49.7677 189.259 50.285 189.128 50.861 189.128C51.7303 189.128 52.4263 189.397 52.949 189.936C53.4717 190.469 53.733 191.192 53.733 192.104L53.725 198H52.549ZM42.237 198V189.36H43.293V191.488H43.421V198H42.237ZM47.405 198L47.413 192.408C47.413 191.72 47.229 191.179 46.861 190.784C46.4983 190.384 46.0183 190.184 45.421 190.184C44.8237 190.184 44.341 190.389 43.973 190.8C43.605 191.205 43.421 191.747 43.421 192.424L42.717 192.04C42.717 191.485 42.8477 190.989 43.109 190.552C43.3703 190.109 43.7277 189.763 44.181 189.512C44.6343 189.256 45.149 189.128 45.725 189.128C46.2743 189.128 46.7623 189.245 47.189 189.48C47.621 189.715 47.9597 190.056 48.205 190.504C48.4503 190.952 48.573 191.496 48.573 192.136L48.565 198H47.405ZM58.2795 198.24C57.6288 198.24 57.0822 198.123 56.6395 197.888C56.2022 197.653 55.8742 197.341 55.6555 196.952C55.4368 196.563 55.3275 196.139 55.3275 195.68C55.3275 195.211 55.4208 194.811 55.6075 194.48C55.7995 194.144 56.0582 193.869 56.3835 193.656C56.7142 193.443 57.0955 193.28 57.5275 193.168C57.9648 193.061 58.4475 192.968 58.9755 192.888C59.5088 192.803 60.0288 192.731 60.5355 192.672C61.0475 192.608 61.4955 192.547 61.8795 192.488L61.4635 192.744C61.4795 191.891 61.3142 191.259 60.9675 190.848C60.6208 190.437 60.0182 190.232 59.1595 190.232C58.5675 190.232 58.0662 190.365 57.6555 190.632C57.2502 190.899 56.9648 191.32 56.7995 191.896L55.6555 191.56C55.8528 190.787 56.2502 190.187 56.8475 189.76C57.4448 189.333 58.2208 189.12 59.1755 189.12C59.9648 189.12 60.6342 189.269 61.1835 189.568C61.7382 189.861 62.1302 190.288 62.3595 190.848C62.4662 191.099 62.5355 191.379 62.5675 191.688C62.5995 191.997 62.6155 192.312 62.6155 192.632V198H61.5675V195.832L61.8715 195.96C61.5782 196.701 61.1222 197.267 60.5035 197.656C59.8848 198.045 59.1435 198.24 58.2795 198.24ZM58.4155 197.224C58.9648 197.224 59.4448 197.125 59.8555 196.928C60.2662 196.731 60.5968 196.461 60.8475 196.12C61.0982 195.773 61.2608 195.384 61.3355 194.952C61.3995 194.675 61.4342 194.371 61.4395 194.04C61.4448 193.704 61.4475 193.453 61.4475 193.288L61.8955 193.52C61.4955 193.573 61.0608 193.627 60.5915 193.68C60.1275 193.733 59.6688 193.795 59.2155 193.864C58.7675 193.933 58.3622 194.016 57.9995 194.112C57.7542 194.181 57.5168 194.28 57.2875 194.408C57.0582 194.531 56.8688 194.696 56.7195 194.904C56.5755 195.112 56.5035 195.371 56.5035 195.68C56.5035 195.931 56.5648 196.173 56.6875 196.408C56.8155 196.643 57.0182 196.837 57.2955 196.992C57.5782 197.147 57.9515 197.224 58.4155 197.224ZM64.8581 187.72V186.4H66.0341V187.72H64.8581ZM64.8581 198V189.36H66.0341V198H64.8581ZM68.5925 198V186.24H69.7685V198H68.5925Z" fill="#4A739C"/>
<rect x="16" y="244" width="358" height="56" rx="8" fill="#E8EDF5"/>
<path d="M33.12 278V266.48H41.944V278H40.768V267.608H34.296V278H33.12ZM46.6545 278.24C46.0038 278.24 45.4572 278.123 45.0145 277.888C44.5772 277.653 44.2492 277.341 44.0305 276.952C43.8118 276.563 43.7025 276.139 43.7025 275.68C43.7025 275.211 43.7958 274.811 43.9825 274.48C44.1745 274.144 44.4332 273.869 44.7585 273.656C45.0892 273.443 45.4705 273.28 45.9025 273.168C46.3398 273.061 46.8225 272.968 47.3505 272.888C47.8838 272.803 48.4038 272.731 48.9105 272.672C49.4225 272.608 49.8705 272.547 50.2545 272.488L49.8385 272.744C49.8545 271.891 49.6892 271.259 49.3425 270.848C48.9958 270.437 48.3932 270.232 47.5345 270.232C46.9425 270.232 46.4412 270.365 46.0305 270.632C45.6252 270.899 45.3398 271.32 45.1745 271.896L44.0305 271.56C44.2278 270.787 44.6252 270.187 45.2225 269.76C45.8198 269.333 46.5958 269.12 47.5505 269.12C48.3398 269.12 49.0092 269.269 49.5585 269.568C50.1132 269.861 50.5052 270.288 50.7345 270.848C50.8412 271.099 50.9105 271.379 50.9425 271.688C50.9745 271.997 50.9905 272.312 50.9905 272.632V278H49.9425V275.832L50.2465 275.96C49.9532 276.701 49.4972 277.267 48.8785 277.656C48.2598 278.045 47.5185 278.24 46.6545 278.24ZM46.7905 277.224C47.3398 277.224 47.8198 277.125 48.2305 276.928C48.6412 276.731 48.9718 276.461 49.2225 276.12C49.4732 275.773 49.6358 275.384 49.7105 274.952C49.7745 274.675 49.8092 274.371 49.8145 274.04C49.8198 273.704 49.8225 273.453 49.8225 273.288L50.2705 273.52C49.8705 273.573 49.4358 273.627 48.9665 273.68C48.5025 273.733 48.0438 273.795 47.5905 273.864C47.1425 273.933 46.7372 274.016 46.3745 274.112C46.1292 274.181 45.8918 274.28 45.6625 274.408C45.4332 274.531 45.2438 274.696 45.0945 274.904C44.9505 275.112 44.8785 275.371 44.8785 275.68C44.8785 275.931 44.9398 276.173 45.0625 276.408C45.1905 276.643 45.3932 276.837 45.6705 276.992C45.9532 277.147 46.3265 277.224 46.7905 277.224ZM56.9531 278.24C56.1585 278.24 55.4865 278.04 54.9371 277.64C54.3878 277.235 53.9718 276.688 53.6891 276C53.4065 275.307 53.2651 274.531 53.2651 273.672C53.2651 272.797 53.4065 272.019 53.6891 271.336C53.9771 270.648 54.3985 270.107 54.9531 269.712C55.5078 269.317 56.1905 269.12 57.0011 269.12C57.7905 269.12 58.4678 269.32 59.0331 269.72C59.5985 270.12 60.0305 270.664 60.3291 271.352C60.6331 272.04 60.7851 272.813 60.7851 273.672C60.7851 274.536 60.6331 275.312 60.3291 276C60.0251 276.688 59.5878 277.235 59.0171 277.64C58.4465 278.04 57.7585 278.24 56.9531 278.24ZM53.0651 281.84V269.36H54.1211V275.864H54.2491V281.84H53.0651ZM56.8331 277.144C57.4358 277.144 57.9371 276.992 58.3371 276.688C58.7371 276.384 59.0358 275.971 59.2331 275.448C59.4358 274.92 59.5371 274.328 59.5371 273.672C59.5371 273.021 59.4385 272.435 59.2411 271.912C59.0438 271.389 58.7425 270.976 58.3371 270.672C57.9371 270.368 57.4278 270.216 56.8091 270.216C56.2065 270.216 55.7051 270.363 55.3051 270.656C54.9105 270.949 54.6145 271.357 54.4171 271.88C54.2198 272.397 54.1211 272.995 54.1211 273.672C54.1211 274.339 54.2198 274.936 54.4171 275.464C54.6145 275.987 54.9131 276.397 55.3131 276.696C55.7131 276.995 56.2198 277.144 56.8331 277.144ZM66.1499 278.24C65.2912 278.24 64.5579 278.045 63.9499 277.656C63.3419 277.267 62.8752 276.728 62.5499 276.04C62.2245 275.352 62.0619 274.563 62.0619 273.672C62.0619 272.765 62.2272 271.971 62.5579 271.288C62.8885 270.605 63.3579 270.075 63.9659 269.696C64.5792 269.312 65.3072 269.12 66.1499 269.12C67.0139 269.12 67.7499 269.315 68.3579 269.704C68.9712 270.088 69.4379 270.624 69.7579 271.312C70.0832 271.995 70.2459 272.781 70.2459 273.672C70.2459 274.579 70.0832 275.376 69.7579 276.064C69.4325 276.747 68.9632 277.28 68.3499 277.664C67.7365 278.048 67.0032 278.24 66.1499 278.24ZM66.1499 277.112C67.1099 277.112 67.8245 276.795 68.2939 276.16C68.7632 275.52 68.9979 274.691 68.9979 273.672C68.9979 272.627 68.7605 271.795 68.2859 271.176C67.8165 270.557 67.1045 270.248 66.1499 270.248C65.5045 270.248 64.9712 270.395 64.5499 270.688C64.1339 270.976 63.8219 271.379 63.6139 271.896C63.4112 272.408 63.3099 273 63.3099 273.672C63.3099 274.712 63.5499 275.547 64.0299 276.176C64.5099 276.8 65.2165 277.112 66.1499 277.112ZM71.2106 278V276.968C71.5306 277.027 71.7733 277.013 71.9386 276.928C72.1093 276.837 72.2346 276.688 72.3146 276.48C72.3946 276.267 72.4613 276.003 72.5146 275.688C72.6 275.165 72.6773 274.589 72.7466 273.96C72.816 273.331 72.8773 272.637 72.9306 271.88C72.9893 271.117 73.048 270.277 73.1066 269.36H78.9786V278H77.8106V270.488H74.1946C74.1573 271.053 74.1146 271.616 74.0666 272.176C74.0186 272.736 73.968 273.275 73.9146 273.792C73.8666 274.304 73.8133 274.776 73.7546 275.208C73.696 275.64 73.6346 276.013 73.5706 276.328C73.4746 276.803 73.3466 277.181 73.1866 277.464C73.032 277.747 72.8 277.933 72.4906 278.024C72.1813 278.115 71.7546 278.107 71.2106 278ZM81.2218 278L81.2058 269.36H82.3898V272.616H84.4138C84.6644 272.616 84.9098 272.621 85.1498 272.632C85.3951 272.643 85.6111 272.664 85.7978 272.696C86.2244 272.776 86.6031 272.917 86.9338 273.12C87.2698 273.323 87.5311 273.603 87.7178 273.96C87.9098 274.317 88.0058 274.765 88.0058 275.304C88.0058 276.045 87.8138 276.629 87.4298 277.056C87.0511 277.483 86.5711 277.76 85.9898 277.888C85.7711 277.936 85.5338 277.968 85.2778 277.984C85.0218 277.995 84.7684 278 84.5178 278H81.2218ZM82.3898 276.992H84.4698C84.6511 276.992 84.8538 276.987 85.0778 276.976C85.3018 276.965 85.4991 276.936 85.6698 276.888C85.9524 276.808 86.2084 276.648 86.4378 276.408C86.6724 276.163 86.7898 275.795 86.7898 275.304C86.7898 274.819 86.6778 274.453 86.4538 274.208C86.2298 273.957 85.9311 273.792 85.5578 273.712C85.3924 273.675 85.2138 273.651 85.0218 273.64C84.8298 273.629 84.6458 273.624 84.4698 273.624H82.3898V276.992Z" fill="#4A739C"/>
<rect x="16" y="324" width="358" height="56" rx="8" fill="#E8EDF5"/>
<path d="M33.12 358V346.48H41.944V358H40.768V347.608H34.296V358H33.12ZM47.7905 358.24C46.9318 358.24 46.1985 358.045 45.5905 357.656C44.9825 357.267 44.5158 356.728 44.1905 356.04C43.8652 355.352 43.7025 354.563 43.7025 353.672C43.7025 352.765 43.8678 351.971 44.1985 351.288C44.5292 350.605 44.9985 350.075 45.6065 349.696C46.2198 349.312 46.9478 349.12 47.7905 349.12C48.6545 349.12 49.3905 349.315 49.9985 349.704C50.6118 350.088 51.0785 350.624 51.3985 351.312C51.7238 351.995 51.8865 352.781 51.8865 353.672C51.8865 354.579 51.7238 355.376 51.3985 356.064C51.0732 356.747 50.6038 357.28 49.9905 357.664C49.3772 358.048 48.6438 358.24 47.7905 358.24ZM47.7905 357.112C48.7505 357.112 49.4652 356.795 49.9345 356.16C50.4038 355.52 50.6385 354.691 50.6385 353.672C50.6385 352.627 50.4012 351.795 49.9265 351.176C49.4572 350.557 48.7452 350.248 47.7905 350.248C47.1452 350.248 46.6118 350.395 46.1905 350.688C45.7745 350.976 45.4625 351.379 45.2545 351.896C45.0518 352.408 44.9505 353 44.9505 353.672C44.9505 354.712 45.1905 355.547 45.6705 356.176C46.1505 356.8 46.8572 357.112 47.7905 357.112ZM53.0113 359.92V356.992C53.5019 356.992 53.8539 356.835 54.0673 356.52C54.2806 356.2 54.4539 355.691 54.5872 354.992C54.6779 354.539 54.7526 354.051 54.8113 353.528C54.8699 353.005 54.9206 352.408 54.9633 351.736C55.0059 351.059 55.0459 350.267 55.0833 349.36H60.7952V356.992H61.6273V359.92H60.4913V358H54.1393V359.92H53.0113ZM55.0033 356.992H59.6273V350.368H56.1713C56.1553 350.773 56.1313 351.203 56.0993 351.656C56.0726 352.109 56.0379 352.563 55.9953 353.016C55.9579 353.469 55.9126 353.896 55.8593 354.296C55.8113 354.691 55.7526 355.037 55.6833 355.336C55.6033 355.72 55.5153 356.048 55.4193 356.32C55.3286 356.592 55.1899 356.816 55.0033 356.992ZM65.5734 358V350.448H62.5094V349.36H69.8134V350.448H66.7494V358H65.5734ZM71.3308 358V349.36H74.8908C75.0721 349.36 75.2908 349.371 75.5468 349.392C75.8081 349.413 76.0508 349.453 76.2748 349.512C76.7601 349.64 77.1494 349.901 77.4428 350.296C77.7414 350.691 77.8908 351.165 77.8908 351.72C77.8908 352.029 77.8428 352.307 77.7468 352.552C77.6561 352.792 77.5254 353 77.3548 353.176C77.2748 353.267 77.1868 353.347 77.0908 353.416C76.9948 353.48 76.9014 353.533 76.8108 353.576C76.9814 353.608 77.1654 353.683 77.3628 353.8C77.6721 353.981 77.9068 354.227 78.0668 354.536C78.2268 354.84 78.3068 355.211 78.3068 355.648C78.3068 356.24 78.1654 356.723 77.8828 357.096C77.6001 357.469 77.2214 357.725 76.7468 357.864C76.5334 357.923 76.3014 357.96 76.0508 357.976C75.8054 357.992 75.5734 358 75.3548 358H71.3308ZM72.5148 357H75.2988C75.4108 357 75.5521 356.992 75.7228 356.976C75.8934 356.955 76.0454 356.928 76.1788 356.896C76.4934 356.816 76.7228 356.656 76.8668 356.416C77.0161 356.171 77.0908 355.904 77.0908 355.616C77.0908 355.237 76.9788 354.928 76.7548 354.688C76.5361 354.443 76.2428 354.293 75.8748 354.24C75.7521 354.213 75.6241 354.197 75.4908 354.192C75.3574 354.187 75.2374 354.184 75.1308 354.184H72.5148V357ZM72.5148 353.176H74.9308C75.0694 353.176 75.2241 353.168 75.3948 353.152C75.5708 353.131 75.7228 353.096 75.8508 353.048C76.1281 352.952 76.3308 352.787 76.4588 352.552C76.5921 352.317 76.6588 352.061 76.6588 351.784C76.6588 351.48 76.5868 351.213 76.4428 350.984C76.3041 350.755 76.0934 350.595 75.8108 350.504C75.6188 350.435 75.4108 350.395 75.1868 350.384C74.9681 350.373 74.8294 350.368 74.7708 350.368H72.5148V353.176ZM83.5573 358.24C82.7146 358.24 81.9839 358.053 81.3653 357.68C80.7519 357.307 80.2746 356.781 79.9333 356.104C79.5919 355.427 79.4213 354.632 79.4213 353.72C79.4213 352.776 79.5893 351.96 79.9253 351.272C80.2613 350.584 80.7333 350.053 81.3413 349.68C81.9546 349.307 82.6773 349.12 83.5093 349.12C84.3626 349.12 85.0906 349.317 85.6933 349.712C86.2959 350.101 86.7519 350.661 87.0613 351.392C87.3706 352.123 87.5119 352.995 87.4853 354.008H86.2853V353.592C86.2639 352.472 86.0213 351.627 85.5573 351.056C85.0986 350.485 84.4266 350.2 83.5413 350.2C82.6133 350.2 81.9013 350.501 81.4053 351.104C80.9146 351.707 80.6693 352.565 80.6693 353.68C80.6693 354.768 80.9146 355.613 81.4053 356.216C81.9013 356.813 82.6026 357.112 83.5093 357.112C84.1279 357.112 84.6666 356.971 85.1253 356.688C85.5893 356.4 85.9546 355.987 86.2213 355.448L87.3173 355.872C86.9759 356.624 86.4719 357.208 85.8053 357.624C85.1439 358.035 84.3946 358.24 83.5573 358.24ZM80.2533 354.008V353.024H86.8533V354.008H80.2533ZM93.1406 358.24C92.346 358.24 91.674 358.04 91.1246 357.64C90.5753 357.235 90.1593 356.688 89.8766 356C89.594 355.307 89.4526 354.531 89.4526 353.672C89.4526 352.797 89.594 352.019 89.8766 351.336C90.1646 350.648 90.586 350.107 91.1406 349.712C91.6953 349.317 92.378 349.12 93.1886 349.12C93.978 349.12 94.6553 349.32 95.2206 349.72C95.786 350.12 96.218 350.664 96.5166 351.352C96.8206 352.04 96.9726 352.813 96.9726 353.672C96.9726 354.536 96.8206 355.312 96.5166 356C96.2126 356.688 95.7753 357.235 95.2046 357.64C94.634 358.04 93.946 358.24 93.1406 358.24ZM89.2526 361.84V349.36H90.3086V355.864H90.4366V361.84H89.2526ZM93.0206 357.144C93.6233 357.144 94.1246 356.992 94.5246 356.688C94.9246 356.384 95.2233 355.971 95.4206 355.448C95.6233 354.92 95.7246 354.328 95.7246 353.672C95.7246 353.021 95.626 352.435 95.4286 351.912C95.2313 351.389 94.93 350.976 94.5246 350.672C94.1246 350.368 93.6153 350.216 92.9966 350.216C92.394 350.216 91.8926 350.363 91.4926 350.656C91.098 350.949 90.802 351.357 90.6046 351.88C90.4073 352.397 90.3086 352.995 90.3086 353.672C90.3086 354.339 90.4073 354.936 90.6046 355.464C90.802 355.987 91.1006 356.397 91.5006 356.696C91.9006 356.995 92.4073 357.144 93.0206 357.144ZM98.0894 359.92V356.992C98.58 356.992 98.932 356.835 99.1454 356.52C99.3587 356.2 99.532 355.691 99.6654 354.992C99.756 354.539 99.8307 354.051 99.8894 353.528C99.948 353.005 99.9987 352.408 100.041 351.736C100.084 351.059 100.124 350.267 100.161 349.36H105.873V356.992H106.705V359.92H105.569V358H99.2174V359.92H98.0894ZM100.081 356.992H104.705V350.368H101.249C101.233 350.773 101.209 351.203 101.177 351.656C101.151 352.109 101.116 352.563 101.073 353.016C101.036 353.469 100.991 353.896 100.937 354.296C100.889 354.691 100.831 355.037 100.761 355.336C100.681 355.72 100.593 356.048 100.497 356.32C100.407 356.592 100.268 356.816 100.081 356.992ZM115.172 349.36V358H114.028V351.272L109.292 358H108.3V349.36H109.444V356.032L114.188 349.36H115.172ZM119.761 358V350.448H116.697V349.36H124.001V350.448H120.937V358H119.761ZM129.182 358.24C128.34 358.24 127.609 358.053 126.99 357.68C126.377 357.307 125.9 356.781 125.558 356.104C125.217 355.427 125.046 354.632 125.046 353.72C125.046 352.776 125.214 351.96 125.55 351.272C125.886 350.584 126.358 350.053 126.966 349.68C127.58 349.307 128.302 349.12 129.134 349.12C129.988 349.12 130.716 349.317 131.318 349.712C131.921 350.101 132.377 350.661 132.686 351.392C132.996 352.123 133.137 352.995 133.11 354.008H131.91V353.592C131.889 352.472 131.646 351.627 131.182 351.056C130.724 350.485 130.052 350.2 129.166 350.2C128.238 350.2 127.526 350.501 127.03 351.104C126.54 351.707 126.294 352.565 126.294 353.68C126.294 354.768 126.54 355.613 127.03 356.216C127.526 356.813 128.228 357.112 129.134 357.112C129.753 357.112 130.292 356.971 130.75 356.688C131.214 356.4 131.58 355.987 131.846 355.448L132.942 355.872C132.601 356.624 132.097 357.208 131.43 357.624C130.769 358.035 130.02 358.24 129.182 358.24ZM125.878 354.008V353.024H132.478V354.008H125.878ZM138.081 358V349.36H144.953V358H143.777V350.488H139.257V358H138.081ZM149.67 358.24C149.019 358.24 148.473 358.123 148.03 357.888C147.593 357.653 147.265 357.341 147.046 356.952C146.827 356.563 146.718 356.139 146.718 355.68C146.718 355.211 146.811 354.811 146.998 354.48C147.19 354.144 147.449 353.869 147.774 353.656C148.105 353.443 148.486 353.28 148.918 353.168C149.355 353.061 149.838 352.968 150.366 352.888C150.899 352.803 151.419 352.731 151.926 352.672C152.438 352.608 152.886 352.547 153.27 352.488L152.854 352.744C152.87 351.891 152.705 351.259 152.358 350.848C152.011 350.437 151.409 350.232 150.55 350.232C149.958 350.232 149.457 350.365 149.046 350.632C148.641 350.899 148.355 351.32 148.19 351.896L147.046 351.56C147.243 350.787 147.641 350.187 148.238 349.76C148.835 349.333 149.611 349.12 150.566 349.12C151.355 349.12 152.025 349.269 152.574 349.568C153.129 349.861 153.521 350.288 153.75 350.848C153.857 351.099 153.926 351.379 153.958 351.688C153.99 351.997 154.006 352.312 154.006 352.632V358H152.958V355.832L153.262 355.96C152.969 356.701 152.513 357.267 151.894 357.656C151.275 358.045 150.534 358.24 149.67 358.24ZM149.806 357.224C150.355 357.224 150.835 357.125 151.246 356.928C151.657 356.731 151.987 356.461 152.238 356.12C152.489 355.773 152.651 355.384 152.726 354.952C152.79 354.675 152.825 354.371 152.83 354.04C152.835 353.704 152.838 353.453 152.838 353.288L153.286 353.52C152.886 353.573 152.451 353.627 151.982 353.68C151.518 353.733 151.059 353.795 150.606 353.864C150.158 353.933 149.753 354.016 149.39 354.112C149.145 354.181 148.907 354.28 148.678 354.408C148.449 354.531 148.259 354.696 148.11 354.904C147.966 355.112 147.894 355.371 147.894 355.68C147.894 355.931 147.955 356.173 148.078 356.408C148.206 356.643 148.409 356.837 148.686 356.992C148.969 357.147 149.342 357.224 149.806 357.224ZM159.969 358.24C159.174 358.24 158.502 358.04 157.953 357.64C157.403 357.235 156.987 356.688 156.705 356C156.422 355.307 156.281 354.531 156.281 353.672C156.281 352.797 156.422 352.019 156.705 351.336C156.993 350.648 157.414 350.107 157.969 349.712C158.523 349.317 159.206 349.12 160.017 349.12C160.806 349.12 161.483 349.32 162.049 349.72C162.614 350.12 163.046 350.664 163.345 351.352C163.649 352.04 163.801 352.813 163.801 353.672C163.801 354.536 163.649 355.312 163.345 356C163.041 356.688 162.603 357.235 162.033 357.64C161.462 358.04 160.774 358.24 159.969 358.24ZM156.081 361.84V349.36H157.137V355.864H157.265V361.84H156.081ZM159.849 357.144C160.451 357.144 160.953 356.992 161.353 356.688C161.753 356.384 162.051 355.971 162.249 355.448C162.451 354.92 162.553 354.328 162.553 353.672C162.553 353.021 162.454 352.435 162.257 351.912C162.059 351.389 161.758 350.976 161.353 350.672C160.953 350.368 160.443 350.216 159.825 350.216C159.222 350.216 158.721 350.363 158.321 350.656C157.926 350.949 157.63 351.357 157.433 351.88C157.235 352.397 157.137 352.995 157.137 353.672C157.137 354.339 157.235 354.936 157.433 355.464C157.63 355.987 157.929 356.397 158.329 356.696C158.729 356.995 159.235 357.144 159.849 357.144ZM169.166 358.24C168.307 358.24 167.574 358.045 166.966 357.656C166.358 357.267 165.891 356.728 165.566 356.04C165.24 355.352 165.078 354.563 165.078 353.672C165.078 352.765 165.243 351.971 165.574 351.288C165.904 350.605 166.374 350.075 166.982 349.696C167.595 349.312 168.323 349.12 169.166 349.12C170.03 349.12 170.766 349.315 171.374 349.704C171.987 350.088 172.454 350.624 172.774 351.312C173.099 351.995 173.262 352.781 173.262 353.672C173.262 354.579 173.099 355.376 172.774 356.064C172.448 356.747 171.979 357.28 171.366 357.664C170.752 358.048 170.019 358.24 169.166 358.24ZM169.166 357.112C170.126 357.112 170.84 356.795 171.31 356.16C171.779 355.52 172.014 354.691 172.014 353.672C172.014 352.627 171.776 351.795 171.302 351.176C170.832 350.557 170.12 350.248 169.166 350.248C168.52 350.248 167.987 350.395 167.566 350.688C167.15 350.976 166.838 351.379 166.63 351.896C166.427 352.408 166.326 353 166.326 353.672C166.326 354.712 166.566 355.547 167.046 356.176C167.526 356.8 168.232 357.112 169.166 357.112ZM174.226 358V356.968C174.546 357.027 174.789 357.013 174.954 356.928C175.125 356.837 175.25 356.688 175.33 356.48C175.41 356.267 175.477 356.003 175.53 355.688C175.616 355.165 175.693 354.589 175.762 353.96C175.832 353.331 175.893 352.637 175.946 351.88C176.005 351.117 176.064 350.277 176.122 349.36H181.994V358H180.826V350.488H177.21C177.173 351.053 177.13 351.616 177.082 352.176C177.034 352.736 176.984 353.275 176.93 353.792C176.882 354.304 176.829 354.776 176.77 355.208C176.712 355.64 176.65 356.013 176.586 356.328C176.49 356.803 176.362 357.181 176.202 357.464C176.048 357.747 175.816 357.933 175.506 358.024C175.197 358.115 174.77 358.107 174.226 358ZM184.237 358L184.221 349.36H185.405V352.616H187.429C187.68 352.616 187.925 352.621 188.165 352.632C188.411 352.643 188.627 352.664 188.813 352.696C189.24 352.776 189.619 352.917 189.949 353.12C190.285 353.323 190.547 353.603 190.733 353.96C190.925 354.317 191.021 354.765 191.021 355.304C191.021 356.045 190.829 356.629 190.445 357.056C190.067 357.483 189.587 357.76 189.005 357.888C188.787 357.936 188.549 357.968 188.293 357.984C188.037 357.995 187.784 358 187.533 358H184.237ZM185.405 356.992H187.485C187.667 356.992 187.869 356.987 188.093 356.976C188.317 356.965 188.515 356.936 188.685 356.888C188.968 356.808 189.224 356.648 189.453 356.408C189.688 356.163 189.805 355.795 189.805 355.304C189.805 354.819 189.693 354.453 189.469 354.208C189.245 353.957 188.947 353.792 188.573 353.712C188.408 353.675 188.229 353.651 188.037 353.64C187.845 353.629 187.661 353.624 187.485 353.624H185.405V356.992Z" fill="#4A739C"/>
<rect x="16" y="404" width="358" height="48" rx="8" fill="#0D80F2"/>
<g clip-path="url(#clip2_27_58)">
<path d="M116.372 434.24C115.561 434.24 114.852 434.123 114.244 433.888C113.641 433.648 113.135 433.341 112.724 432.968C112.319 432.589 112.007 432.192 111.788 431.776L113.436 430.656C113.564 430.949 113.751 431.232 113.996 431.504C114.241 431.771 114.564 431.992 114.964 432.168C115.364 432.339 115.86 432.424 116.452 432.424C117.023 432.424 117.489 432.339 117.852 432.168C118.215 431.997 118.481 431.773 118.652 431.496C118.823 431.219 118.908 430.917 118.908 430.592C118.908 430.187 118.796 429.875 118.572 429.656C118.348 429.432 118.055 429.277 117.692 429.192C117.329 429.101 116.943 429.051 116.532 429.04C116.159 429.029 115.889 429.021 115.724 429.016C115.559 429.011 115.449 429.008 115.396 429.008C115.343 429.008 115.292 429.008 115.244 429.008V427.184C115.303 427.184 115.401 427.184 115.54 427.184C115.684 427.184 115.831 427.184 115.98 427.184C116.135 427.179 116.26 427.173 116.356 427.168C116.964 427.141 117.463 427 117.852 426.744C118.247 426.488 118.444 426.109 118.444 425.608C118.444 425.123 118.26 424.741 117.892 424.464C117.529 424.187 117.047 424.048 116.444 424.048C115.879 424.048 115.38 424.173 114.948 424.424C114.521 424.675 114.199 424.971 113.98 425.312L112.628 423.936C113.017 423.461 113.545 423.061 114.212 422.736C114.884 422.405 115.647 422.24 116.5 422.24C117.001 422.24 117.489 422.307 117.964 422.44C118.439 422.568 118.865 422.765 119.244 423.032C119.623 423.299 119.924 423.64 120.148 424.056C120.372 424.472 120.484 424.968 120.484 425.544C120.484 426.072 120.383 426.56 120.18 427.008C119.983 427.451 119.705 427.813 119.348 428.096C119.855 428.299 120.247 428.608 120.524 429.024C120.807 429.44 120.948 429.965 120.948 430.6C120.948 431.347 120.745 431.992 120.34 432.536C119.935 433.08 119.385 433.501 118.692 433.8C118.004 434.093 117.231 434.24 116.372 434.24ZM125.099 434.24C124.475 434.24 123.947 434.123 123.515 433.888C123.083 433.648 122.755 433.331 122.531 432.936C122.312 432.541 122.203 432.107 122.203 431.632C122.203 431.216 122.272 430.843 122.411 430.512C122.549 430.176 122.763 429.888 123.051 429.648C123.339 429.403 123.712 429.203 124.171 429.048C124.517 428.936 124.923 428.835 125.387 428.744C125.856 428.653 126.363 428.571 126.907 428.496C127.456 428.416 128.029 428.331 128.627 428.24L127.939 428.632C127.944 428.035 127.811 427.595 127.539 427.312C127.267 427.029 126.808 426.888 126.163 426.888C125.773 426.888 125.397 426.979 125.035 427.16C124.672 427.341 124.419 427.653 124.275 428.096L122.515 427.544C122.728 426.813 123.133 426.227 123.731 425.784C124.333 425.341 125.144 425.12 126.163 425.12C126.931 425.12 127.605 425.245 128.187 425.496C128.773 425.747 129.208 426.157 129.491 426.728C129.645 427.032 129.739 427.344 129.771 427.664C129.803 427.979 129.819 428.323 129.819 428.696V434H128.131V432.128L128.411 432.432C128.021 433.056 127.565 433.515 127.043 433.808C126.525 434.096 125.877 434.24 125.099 434.24ZM125.483 432.704C125.92 432.704 126.293 432.627 126.603 432.472C126.912 432.317 127.157 432.128 127.339 431.904C127.525 431.68 127.651 431.469 127.715 431.272C127.816 431.027 127.872 430.747 127.883 430.432C127.899 430.112 127.907 429.853 127.907 429.656L128.499 429.832C127.917 429.923 127.419 430.003 127.003 430.072C126.587 430.141 126.229 430.208 125.931 430.272C125.632 430.331 125.368 430.397 125.139 430.472C124.915 430.552 124.725 430.645 124.571 430.752C124.416 430.859 124.296 430.981 124.211 431.12C124.131 431.259 124.091 431.421 124.091 431.608C124.091 431.821 124.144 432.011 124.251 432.176C124.357 432.336 124.512 432.464 124.715 432.56C124.923 432.656 125.179 432.704 125.483 432.704ZM136.053 434.24C135.211 434.24 134.504 434.04 133.933 433.64C133.363 433.24 132.933 432.696 132.645 432.008C132.357 431.315 132.213 430.539 132.213 429.68C132.213 428.811 132.357 428.032 132.645 427.344C132.933 426.656 133.355 426.115 133.909 425.72C134.469 425.32 135.16 425.12 135.981 425.12C136.797 425.12 137.504 425.32 138.101 425.72C138.704 426.115 139.171 426.656 139.501 427.344C139.832 428.027 139.997 428.805 139.997 429.68C139.997 430.544 139.835 431.32 139.509 432.008C139.184 432.696 138.725 433.24 138.133 433.64C137.541 434.04 136.848 434.24 136.053 434.24ZM131.885 437.84V425.36H133.589V431.424H133.829V437.84H131.885ZM135.757 432.512C136.259 432.512 136.672 432.387 136.997 432.136C137.323 431.885 137.563 431.547 137.717 431.12C137.877 430.688 137.957 430.208 137.957 429.68C137.957 429.157 137.877 428.683 137.717 428.256C137.557 427.824 137.309 427.483 136.973 427.232C136.637 426.976 136.211 426.848 135.693 426.848C135.203 426.848 134.803 426.968 134.493 427.208C134.184 427.443 133.955 427.773 133.805 428.2C133.661 428.621 133.589 429.115 133.589 429.68C133.589 430.24 133.661 430.733 133.805 431.16C133.955 431.587 134.187 431.92 134.501 432.16C134.821 432.395 135.24 432.512 135.757 432.512ZM145.689 434.24C144.814 434.24 144.046 434.051 143.385 433.672C142.723 433.293 142.206 432.768 141.833 432.096C141.465 431.424 141.281 430.651 141.281 429.776C141.281 428.832 141.462 428.013 141.825 427.32C142.187 426.621 142.691 426.08 143.337 425.696C143.982 425.312 144.729 425.12 145.577 425.12C146.473 425.12 147.233 425.331 147.857 425.752C148.486 426.168 148.953 426.757 149.257 427.52C149.561 428.283 149.675 429.181 149.601 430.216H147.689V429.512C147.683 428.573 147.518 427.888 147.193 427.456C146.867 427.024 146.355 426.808 145.657 426.808C144.867 426.808 144.281 427.053 143.897 427.544C143.513 428.029 143.321 428.741 143.321 429.68C143.321 430.555 143.513 431.232 143.897 431.712C144.281 432.192 144.841 432.432 145.577 432.432C146.051 432.432 146.459 432.328 146.801 432.12C147.147 431.907 147.414 431.6 147.601 431.2L149.505 431.776C149.174 432.555 148.662 433.16 147.969 433.592C147.281 434.024 146.521 434.24 145.689 434.24ZM142.713 430.216V428.76H148.657V430.216H142.713ZM151.386 434V425.36H157.546V427.168H153.314V434H151.386ZM166.561 425.36V434H164.713V428.36L160.601 434H159.057V425.36H160.905V430.856L165.033 425.36H166.561ZM172.56 434.24C171.669 434.24 170.909 434.043 170.28 433.648C169.65 433.248 169.168 432.704 168.832 432.016C168.501 431.328 168.333 430.549 168.328 429.68C168.333 428.795 168.506 428.011 168.848 427.328C169.194 426.64 169.685 426.101 170.32 425.712C170.954 425.317 171.709 425.12 172.584 425.12C173.565 425.12 174.394 425.368 175.072 425.864C175.754 426.355 176.2 427.027 176.408 427.88L174.488 428.4C174.338 427.936 174.09 427.576 173.744 427.32C173.397 427.059 173.002 426.928 172.56 426.928C172.058 426.928 171.645 427.048 171.32 427.288C170.994 427.523 170.754 427.848 170.6 428.264C170.445 428.68 170.368 429.152 170.368 429.68C170.368 430.501 170.552 431.165 170.92 431.672C171.288 432.179 171.834 432.432 172.56 432.432C173.072 432.432 173.474 432.315 173.768 432.08C174.066 431.845 174.29 431.507 174.44 431.064L176.408 431.504C176.141 432.384 175.674 433.061 175.008 433.536C174.341 434.005 173.525 434.24 172.56 434.24ZM180.132 434V427.072H177.244V425.36H184.948V427.072H182.06V434H180.132ZM190.616 434.24C189.773 434.24 189.066 434.04 188.496 433.64C187.925 433.24 187.496 432.696 187.208 432.008C186.92 431.315 186.776 430.539 186.776 429.68C186.776 428.811 186.92 428.032 187.208 427.344C187.496 426.656 187.917 426.115 188.472 425.72C189.032 425.32 189.722 425.12 190.544 425.12C191.36 425.12 192.066 425.32 192.664 425.72C193.266 426.115 193.733 426.656 194.064 427.344C194.394 428.027 194.56 428.805 194.56 429.68C194.56 430.544 194.397 431.32 194.072 432.008C193.746 432.696 193.288 433.24 192.696 433.64C192.104 434.04 191.41 434.24 190.616 434.24ZM186.448 437.84V425.36H188.152V431.424H188.392V437.84H186.448ZM190.32 432.512C190.821 432.512 191.234 432.387 191.56 432.136C191.885 431.885 192.125 431.547 192.28 431.12C192.44 430.688 192.52 430.208 192.52 429.68C192.52 429.157 192.44 428.683 192.28 428.256C192.12 427.824 191.872 427.483 191.536 427.232C191.2 426.976 190.773 426.848 190.256 426.848C189.765 426.848 189.365 426.968 189.056 427.208C188.746 427.443 188.517 427.773 188.368 428.2C188.224 428.621 188.152 429.115 188.152 429.68C188.152 430.24 188.224 430.733 188.368 431.16C188.517 431.587 188.749 431.92 189.064 432.16C189.384 432.395 189.802 432.512 190.32 432.512ZM203.811 425.36V434H201.963V428.36L197.851 434H196.307V425.36H198.155V430.856L202.283 425.36H203.811ZM210.21 434.24C209.367 434.24 208.66 434.04 208.09 433.64C207.519 433.24 207.09 432.696 206.802 432.008C206.514 431.315 206.37 430.539 206.37 429.68C206.37 428.811 206.514 428.032 206.802 427.344C207.09 426.656 207.511 426.115 208.066 425.72C208.626 425.32 209.316 425.12 210.138 425.12C210.954 425.12 211.66 425.32 212.258 425.72C212.86 426.115 213.327 426.656 213.658 427.344C213.988 428.027 214.154 428.805 214.154 429.68C214.154 430.544 213.991 431.32 213.666 432.008C213.34 432.696 212.882 433.24 212.29 433.64C211.698 434.04 211.004 434.24 210.21 434.24ZM206.042 437.84V425.36H207.746V431.424H207.986V437.84H206.042ZM209.914 432.512C210.415 432.512 210.828 432.387 211.154 432.136C211.479 431.885 211.719 431.547 211.874 431.12C212.034 430.688 212.114 430.208 212.114 429.68C212.114 429.157 212.034 428.683 211.874 428.256C211.714 427.824 211.466 427.483 211.13 427.232C210.794 426.976 210.367 426.848 209.85 426.848C209.359 426.848 208.959 426.968 208.65 427.208C208.34 427.443 208.111 427.773 207.962 428.2C207.818 428.621 207.746 429.115 207.746 429.68C207.746 430.24 207.818 430.733 207.962 431.16C208.111 431.587 208.343 431.92 208.658 432.16C208.978 432.395 209.396 432.512 209.914 432.512ZM219.733 434.24C218.869 434.24 218.114 434.045 217.469 433.656C216.824 433.267 216.322 432.731 215.965 432.048C215.613 431.36 215.437 430.571 215.437 429.68C215.437 428.773 215.618 427.979 215.981 427.296C216.344 426.613 216.848 426.08 217.493 425.696C218.138 425.312 218.885 425.12 219.733 425.12C220.602 425.12 221.36 425.315 222.005 425.704C222.65 426.093 223.152 426.632 223.509 427.32C223.866 428.003 224.045 428.789 224.045 429.68C224.045 430.576 223.864 431.368 223.501 432.056C223.144 432.739 222.642 433.275 221.997 433.664C221.352 434.048 220.597 434.24 219.733 434.24ZM219.733 432.432C220.501 432.432 221.072 432.176 221.445 431.664C221.818 431.152 222.005 430.491 222.005 429.68C222.005 428.843 221.816 428.176 221.437 427.68C221.058 427.179 220.49 426.928 219.733 426.928C219.216 426.928 218.789 427.045 218.453 427.28C218.122 427.509 217.877 427.832 217.717 428.248C217.557 428.659 217.477 429.136 217.477 429.68C217.477 430.517 217.666 431.187 218.045 431.688C218.429 432.184 218.992 432.432 219.733 432.432ZM225.792 434V425.36H229.72C230.002 425.36 230.266 425.376 230.512 425.408C230.757 425.44 230.968 425.48 231.144 425.528C231.56 425.651 231.928 425.891 232.248 426.248C232.568 426.6 232.727 427.088 232.727 427.712C232.727 428.08 232.669 428.384 232.552 428.624C232.434 428.859 232.28 429.056 232.088 429.216C231.997 429.291 231.904 429.355 231.808 429.408C231.712 429.461 231.616 429.504 231.52 429.536C231.728 429.568 231.925 429.629 232.112 429.72C232.405 429.864 232.65 430.077 232.848 430.36C233.05 430.643 233.152 431.04 233.152 431.552C233.152 432.133 233.01 432.624 232.727 433.024C232.45 433.419 232.042 433.693 231.504 433.848C231.306 433.901 231.08 433.941 230.824 433.968C230.568 433.989 230.306 434 230.04 434H225.792ZM227.744 432.512H229.904C230.016 432.512 230.138 432.501 230.272 432.48C230.405 432.459 230.525 432.429 230.632 432.392C230.824 432.323 230.962 432.2 231.048 432.024C231.138 431.848 231.184 431.664 231.184 431.472C231.184 431.211 231.117 431.003 230.984 430.848C230.856 430.688 230.701 430.581 230.52 430.528C230.413 430.485 230.296 430.461 230.168 430.456C230.045 430.445 229.944 430.44 229.864 430.44H227.744V432.512ZM227.744 428.928H229.344C229.509 428.928 229.669 428.92 229.824 428.904C229.984 428.883 230.117 428.848 230.224 428.8C230.4 428.731 230.528 428.613 230.608 428.448C230.693 428.283 230.736 428.099 230.736 427.896C230.736 427.683 230.688 427.491 230.592 427.32C230.501 427.144 230.354 427.027 230.152 426.968C230.018 426.915 229.856 426.885 229.664 426.88C229.477 426.875 229.357 426.872 229.304 426.872H227.744V428.928ZM237.161 434.24C236.537 434.24 236.009 434.123 235.577 433.888C235.145 433.648 234.817 433.331 234.593 432.936C234.374 432.541 234.265 432.107 234.265 431.632C234.265 431.216 234.334 430.843 234.473 430.512C234.612 430.176 234.825 429.888 235.113 429.648C235.401 429.403 235.774 429.203 236.233 429.048C236.58 428.936 236.985 428.835 237.449 428.744C237.918 428.653 238.425 428.571 238.969 428.496C239.518 428.416 240.092 428.331 240.689 428.24L240.001 428.632C240.006 428.035 239.873 427.595 239.601 427.312C239.329 427.029 238.87 426.888 238.225 426.888C237.836 426.888 237.46 426.979 237.097 427.16C236.734 427.341 236.481 427.653 236.337 428.096L234.577 427.544C234.79 426.813 235.196 426.227 235.793 425.784C236.396 425.341 237.206 425.12 238.225 425.12C238.993 425.12 239.668 425.245 240.249 425.496C240.836 425.747 241.27 426.157 241.553 426.728C241.708 427.032 241.801 427.344 241.833 427.664C241.865 427.979 241.881 428.323 241.881 428.696V434H240.193V432.128L240.473 432.432C240.084 433.056 239.628 433.515 239.105 433.808C238.588 434.096 237.94 434.24 237.161 434.24ZM237.545 432.704C237.982 432.704 238.356 432.627 238.665 432.472C238.974 432.317 239.22 432.128 239.401 431.904C239.588 431.68 239.713 431.469 239.777 431.272C239.878 431.027 239.934 430.747 239.945 430.432C239.961 430.112 239.969 429.853 239.969 429.656L240.561 429.832C239.98 429.923 239.481 430.003 239.065 430.072C238.649 430.141 238.292 430.208 237.993 430.272C237.694 430.331 237.43 430.397 237.201 430.472C236.977 430.552 236.788 430.645 236.633 430.752C236.478 430.859 236.358 430.981 236.273 431.12C236.193 431.259 236.153 431.421 236.153 431.608C236.153 431.821 236.206 432.011 236.313 432.176C236.42 432.336 236.574 432.464 236.777 432.56C236.985 432.656 237.241 432.704 237.545 432.704ZM246.132 434V427.072H243.244V425.36H250.948V427.072H248.06V434H246.132ZM252.456 434L252.448 425.36H254.376V428.24H255.928C256.168 428.24 256.437 428.245 256.736 428.256C257.04 428.267 257.293 428.291 257.496 428.328C257.981 428.435 258.394 428.605 258.736 428.84C259.082 429.075 259.346 429.381 259.528 429.76C259.709 430.139 259.8 430.595 259.8 431.128C259.8 431.891 259.602 432.501 259.208 432.96C258.818 433.413 258.269 433.723 257.56 433.888C257.346 433.936 257.085 433.968 256.776 433.984C256.472 433.995 256.197 434 255.952 434H252.456ZM254.376 432.488H256.12C256.237 432.488 256.368 432.483 256.512 432.472C256.656 432.461 256.794 432.437 256.928 432.4C257.168 432.336 257.378 432.192 257.56 431.968C257.746 431.739 257.84 431.459 257.84 431.128C257.84 430.781 257.746 430.496 257.56 430.272C257.373 430.048 257.144 429.901 256.872 429.832C256.749 429.8 256.621 429.779 256.488 429.768C256.354 429.757 256.232 429.752 256.12 429.752H254.376V432.488ZM265.31 434.24C264.419 434.24 263.659 434.043 263.03 433.648C262.4 433.248 261.918 432.704 261.582 432.016C261.251 431.328 261.083 430.549 261.078 429.68C261.083 428.795 261.256 428.011 261.598 427.328C261.944 426.64 262.435 426.101 263.07 425.712C263.704 425.317 264.459 425.12 265.334 425.12C266.315 425.12 267.144 425.368 267.822 425.864C268.504 426.355 268.95 427.027 269.158 427.88L267.238 428.4C267.088 427.936 266.84 427.576 266.494 427.32C266.147 427.059 265.752 426.928 265.31 426.928C264.808 426.928 264.395 427.048 264.07 427.288C263.744 427.523 263.504 427.848 263.35 428.264C263.195 428.68 263.118 429.152 263.118 429.68C263.118 430.501 263.302 431.165 263.67 431.672C264.038 432.179 264.584 432.432 265.31 432.432C265.822 432.432 266.224 432.315 266.518 432.08C266.816 431.845 267.04 431.507 267.19 431.064L269.158 431.504C268.891 432.384 268.424 433.061 267.758 433.536C267.091 434.005 266.275 434.24 265.31 434.24ZM275.788 434V431.12H274.244C274.047 431.12 273.799 431.115 273.5 431.104C273.207 431.093 272.932 431.067 272.676 431.024C272.009 430.901 271.457 430.611 271.02 430.152C270.583 429.688 270.364 429.059 270.364 428.264C270.364 427.485 270.572 426.859 270.988 426.384C271.404 425.909 271.945 425.605 272.612 425.472C272.889 425.413 273.175 425.381 273.468 425.376C273.767 425.365 274.015 425.36 274.212 425.36H277.716V434H275.788ZM270.14 434L272.204 430.696H274.212L272.164 434H270.14ZM274.044 429.608H275.788V426.872H274.044C273.943 426.872 273.82 426.877 273.676 426.888C273.532 426.899 273.388 426.923 273.244 426.96C273.089 427.008 272.943 427.091 272.804 427.208C272.665 427.325 272.551 427.472 272.46 427.648C272.369 427.824 272.324 428.024 272.324 428.248C272.324 428.584 272.42 428.864 272.612 429.088C272.809 429.307 273.039 429.453 273.3 429.528C273.428 429.56 273.559 429.581 273.692 429.592C273.831 429.603 273.948 429.608 274.044 429.608Z" fill="#F7FAFC"/>
</g>
<path d="M115.807 807L116.941 804.613L113.357 796.92H114.498L117.48 803.507L120.518 796.92H121.617L116.927 807H115.807ZM121.565 807L124.757 803.22L121.698 799.44H122.86L125.842 803.171V799.44H126.794V803.171L129.776 799.44H130.931L127.872 803.22L131.064 807H129.867L126.794 803.269V807H125.842V803.269L122.762 807H121.565ZM135.106 807.21C134.368 807.21 133.729 807.047 133.188 806.72C132.651 806.393 132.233 805.934 131.935 805.341C131.636 804.748 131.487 804.053 131.487 803.255C131.487 802.429 131.634 801.715 131.928 801.113C132.222 800.511 132.635 800.047 133.167 799.72C133.703 799.393 134.336 799.23 135.064 799.23C135.81 799.23 136.447 799.403 136.975 799.748C137.502 800.089 137.901 800.579 138.172 801.218C138.442 801.857 138.566 802.62 138.543 803.507H137.493V803.143C137.474 802.163 137.262 801.423 136.856 800.924C136.454 800.425 135.866 800.175 135.092 800.175C134.28 800.175 133.657 800.439 133.223 800.966C132.793 801.493 132.579 802.245 132.579 803.22C132.579 804.172 132.793 804.912 133.223 805.439C133.657 805.962 134.27 806.223 135.064 806.223C135.605 806.223 136.076 806.099 136.478 805.852C136.884 805.6 137.203 805.238 137.437 804.767L138.396 805.138C138.097 805.796 137.656 806.307 137.073 806.671C136.494 807.03 135.838 807.21 135.106 807.21ZM132.215 803.507V802.646H137.99V803.507H132.215ZM146.098 807.21C145.361 807.21 144.721 807.047 144.18 806.72C143.643 806.393 143.226 805.934 142.927 805.341C142.628 804.748 142.479 804.053 142.479 803.255C142.479 802.429 142.626 801.715 142.92 801.113C143.214 800.511 143.627 800.047 144.159 799.72C144.696 799.393 145.328 799.23 146.056 799.23C146.803 799.23 147.44 799.403 147.967 799.748C148.494 800.089 148.893 800.579 149.164 801.218C149.435 801.857 149.558 802.62 149.535 803.507H148.485V803.143C148.466 802.163 148.254 801.423 147.848 800.924C147.447 800.425 146.859 800.175 146.084 800.175C145.272 800.175 144.649 800.439 144.215 800.966C143.786 801.493 143.571 802.245 143.571 803.22C143.571 804.172 143.786 804.912 144.215 805.439C144.649 805.962 145.263 806.223 146.056 806.223C146.597 806.223 147.069 806.099 147.47 805.852C147.876 805.6 148.196 805.238 148.429 804.767L149.388 805.138C149.089 805.796 148.648 806.307 148.065 806.671C147.486 807.03 146.831 807.21 146.098 807.21ZM143.207 803.507V802.646H148.982V803.507H143.207ZM154.224 807.21C153.464 807.21 152.82 807.04 152.292 806.699C151.765 806.358 151.364 805.889 151.088 805.292C150.818 804.69 150.678 803.999 150.668 803.22C150.678 802.427 150.822 801.731 151.102 801.134C151.382 800.532 151.786 800.065 152.313 799.734C152.841 799.398 153.48 799.23 154.231 799.23C154.997 799.23 155.662 799.417 156.226 799.79C156.796 800.163 157.185 800.674 157.395 801.323L156.387 801.645C156.21 801.192 155.928 800.842 155.54 800.595C155.158 800.343 154.719 800.217 154.224 800.217C153.669 800.217 153.209 800.345 152.845 800.602C152.481 800.854 152.211 801.206 152.033 801.659C151.856 802.112 151.765 802.632 151.76 803.22C151.77 804.125 151.98 804.853 152.39 805.404C152.801 805.95 153.412 806.223 154.224 806.223C154.738 806.223 155.174 806.106 155.533 805.873C155.897 805.635 156.173 805.29 156.359 804.837L157.395 805.145C157.115 805.817 156.705 806.33 156.163 806.685C155.622 807.035 154.976 807.21 154.224 807.21ZM160.714 807V800.392H158.033V799.44H164.424V800.392H161.743V807H160.714ZM165.765 807L165.751 799.44H166.787V802.289H168.558C168.778 802.289 168.992 802.294 169.202 802.303C169.417 802.312 169.606 802.331 169.769 802.359C170.143 802.429 170.474 802.553 170.763 802.73C171.057 802.907 171.286 803.152 171.449 803.465C171.617 803.778 171.701 804.17 171.701 804.641C171.701 805.29 171.533 805.801 171.197 806.174C170.866 806.547 170.446 806.79 169.937 806.902C169.746 806.944 169.538 806.972 169.314 806.986C169.09 806.995 168.869 807 168.649 807H165.765ZM166.787 806.118H168.607C168.766 806.118 168.943 806.113 169.139 806.104C169.335 806.095 169.508 806.069 169.657 806.027C169.905 805.957 170.129 805.817 170.329 805.607C170.535 805.392 170.637 805.07 170.637 804.641C170.637 804.216 170.539 803.897 170.343 803.682C170.147 803.463 169.886 803.318 169.559 803.248C169.415 803.215 169.258 803.194 169.09 803.185C168.922 803.176 168.761 803.171 168.607 803.171H166.787V806.118ZM178.203 807.21C177.633 807.21 177.155 807.107 176.768 806.902C176.385 806.697 176.098 806.424 175.907 806.083C175.715 805.742 175.62 805.371 175.62 804.97C175.62 804.559 175.701 804.209 175.865 803.92C176.033 803.626 176.259 803.386 176.544 803.199C176.833 803.012 177.167 802.87 177.545 802.772C177.927 802.679 178.35 802.597 178.812 802.527C179.278 802.452 179.733 802.389 180.177 802.338C180.625 802.282 181.017 802.228 181.353 802.177L180.989 802.401C181.003 801.654 180.858 801.101 180.555 800.742C180.251 800.383 179.724 800.203 178.973 800.203C178.455 800.203 178.016 800.32 177.657 800.553C177.302 800.786 177.052 801.155 176.908 801.659L175.907 801.365C176.079 800.688 176.427 800.163 176.95 799.79C177.472 799.417 178.151 799.23 178.987 799.23C179.677 799.23 180.263 799.361 180.744 799.622C181.229 799.879 181.572 800.252 181.773 800.742C181.866 800.961 181.927 801.206 181.955 801.477C181.983 801.748 181.997 802.023 181.997 802.303V807H181.08V805.103L181.346 805.215C181.089 805.864 180.69 806.358 180.149 806.699C179.607 807.04 178.959 807.21 178.203 807.21ZM178.322 806.321C178.802 806.321 179.222 806.235 179.582 806.062C179.941 805.889 180.23 805.654 180.45 805.355C180.669 805.052 180.811 804.711 180.877 804.333C180.933 804.09 180.963 803.824 180.968 803.535C180.972 803.241 180.975 803.022 180.975 802.877L181.367 803.08C181.017 803.127 180.636 803.173 180.226 803.22C179.82 803.267 179.418 803.32 179.022 803.381C178.63 803.442 178.275 803.514 177.958 803.598C177.743 803.659 177.535 803.745 177.335 803.857C177.134 803.964 176.968 804.109 176.838 804.291C176.712 804.473 176.649 804.699 176.649 804.97C176.649 805.189 176.702 805.402 176.81 805.607C176.922 805.812 177.099 805.983 177.342 806.118C177.589 806.253 177.916 806.321 178.322 806.321ZM183.812 807L183.819 799.44H184.855V803.08L188.229 799.44H189.601L186.059 803.22L190.063 807H188.565L184.855 803.36V807H183.812ZM190.757 807L190.764 799.44H191.8V803.08L195.174 799.44H196.546L193.004 803.22L197.008 807H195.51L191.8 803.36V807H190.757ZM199.872 807.21C199.303 807.21 198.825 807.107 198.437 806.902C198.055 806.697 197.768 806.424 197.576 806.083C197.385 805.742 197.289 805.371 197.289 804.97C197.289 804.559 197.371 804.209 197.534 803.92C197.702 803.626 197.929 803.386 198.213 803.199C198.503 803.012 198.836 802.87 199.214 802.772C199.597 802.679 200.019 802.597 200.481 802.527C200.948 802.452 201.403 802.389 201.846 802.338C202.294 802.282 202.686 802.228 203.022 802.177L202.658 802.401C202.672 801.654 202.528 801.101 202.224 800.742C201.921 800.383 201.394 800.203 200.642 800.203C200.124 800.203 199.686 800.32 199.326 800.553C198.972 800.786 198.722 801.155 198.577 801.659L197.576 801.365C197.749 800.688 198.097 800.163 198.619 799.79C199.142 799.417 199.821 799.23 200.656 799.23C201.347 799.23 201.933 799.361 202.413 799.622C202.899 799.879 203.242 800.252 203.442 800.742C203.536 800.961 203.596 801.206 203.624 801.477C203.652 801.748 203.666 802.023 203.666 802.303V807H202.749V805.103L203.015 805.215C202.759 805.864 202.36 806.358 201.818 806.699C201.277 807.04 200.628 807.21 199.872 807.21ZM199.991 806.321C200.472 806.321 200.892 806.235 201.251 806.062C201.611 805.889 201.9 805.654 202.119 805.355C202.339 805.052 202.481 804.711 202.546 804.333C202.602 804.09 202.633 803.824 202.637 803.535C202.642 803.241 202.644 803.022 202.644 802.877L203.036 803.08C202.686 803.127 202.306 803.173 201.895 803.22C201.489 803.267 201.088 803.32 200.691 803.381C200.299 803.442 199.945 803.514 199.627 803.598C199.413 803.659 199.205 803.745 199.004 803.857C198.804 803.964 198.638 804.109 198.507 804.291C198.381 804.473 198.318 804.699 198.318 804.97C198.318 805.189 198.372 805.402 198.479 805.607C198.591 805.812 198.769 805.983 199.011 806.118C199.259 806.253 199.585 806.321 199.991 806.321ZM206.143 810.36L207.606 806.391L207.627 807.567L204.316 799.44H205.408L208.124 806.237H207.676L210.182 799.44H211.232L207.172 810.36H206.143ZM212.441 807V799.44H213.47V802.723H217.733V799.44H218.762V807H217.733V803.71H213.47V807H212.441ZM222.77 807V800.392H220.089V799.44H226.48V800.392H223.799V807H222.77ZM229.789 804.249C229.789 803.885 229.805 803.565 229.838 803.29C229.875 803.01 229.969 802.73 230.118 802.45C230.258 802.184 230.431 801.965 230.636 801.792C230.841 801.615 231.056 801.449 231.28 801.295C231.504 801.136 231.716 800.95 231.917 800.735C232.099 800.525 232.22 800.313 232.281 800.098C232.342 799.883 232.372 799.657 232.372 799.419C232.372 799.181 232.342 798.969 232.281 798.782C232.225 798.595 232.136 798.434 232.015 798.299C231.828 798.07 231.6 797.914 231.329 797.83C231.058 797.746 230.776 797.704 230.482 797.704C230.193 797.704 229.922 797.746 229.67 797.83C229.423 797.909 229.217 798.033 229.054 798.201C228.895 798.35 228.779 798.53 228.704 798.74C228.634 798.95 228.599 799.172 228.599 799.405H227.535C227.554 799.036 227.633 798.677 227.773 798.327C227.918 797.972 228.128 797.676 228.403 797.438C228.678 797.186 228.998 797.004 229.362 796.892C229.731 796.775 230.102 796.717 230.475 796.717C230.932 796.717 231.366 796.787 231.777 796.927C232.188 797.062 232.533 797.291 232.813 797.613C233.037 797.851 233.2 798.124 233.303 798.432C233.41 798.735 233.464 799.06 233.464 799.405C233.464 799.792 233.392 800.156 233.247 800.497C233.102 800.838 232.899 801.141 232.638 801.407C232.479 801.58 232.3 801.741 232.099 801.89C231.898 802.035 231.705 802.186 231.518 802.345C231.336 802.499 231.196 802.667 231.098 802.849C230.977 803.073 230.909 803.285 230.895 803.486C230.886 803.687 230.881 803.941 230.881 804.249H229.789ZM229.796 807V805.628H230.881V807H229.796ZM237.946 807V796.92H241.838C242.402 796.92 242.895 797.037 243.315 797.27C243.735 797.503 244.061 797.818 244.295 798.215C244.528 798.607 244.645 799.041 244.645 799.517C244.645 800.058 244.5 800.541 244.211 800.966C243.921 801.386 243.534 801.678 243.049 801.841L243.035 801.498C243.688 801.685 244.201 802.011 244.575 802.478C244.948 802.945 245.135 803.509 245.135 804.172C245.135 804.755 245.011 805.259 244.764 805.684C244.516 806.104 244.169 806.428 243.721 806.657C243.273 806.886 242.752 807 242.16 807H237.946ZM238.982 806.013H241.908C242.318 806.013 242.687 805.941 243.014 805.796C243.34 805.647 243.597 805.437 243.784 805.166C243.975 804.895 244.071 804.569 244.071 804.186C244.071 803.813 243.984 803.477 243.812 803.178C243.639 802.879 243.403 802.641 243.105 802.464C242.811 802.282 242.475 802.191 242.097 802.191H238.982V806.013ZM238.982 801.218H241.831C242.153 801.218 242.447 801.146 242.713 801.001C242.979 800.852 243.189 800.649 243.343 800.392C243.501 800.135 243.581 799.839 243.581 799.503C243.581 799.027 243.415 798.64 243.084 798.341C242.757 798.042 242.339 797.893 241.831 797.893H238.982V801.218ZM249.689 807.21C248.937 807.21 248.296 807.04 247.764 806.699C247.232 806.358 246.823 805.887 246.539 805.285C246.254 804.683 246.112 803.992 246.112 803.213C246.112 802.42 246.256 801.724 246.546 801.127C246.835 800.53 247.246 800.065 247.778 799.734C248.314 799.398 248.951 799.23 249.689 799.23C250.445 799.23 251.089 799.4 251.621 799.741C252.157 800.077 252.566 800.546 252.846 801.148C253.13 801.745 253.273 802.434 253.273 803.213C253.273 804.006 253.13 804.704 252.846 805.306C252.561 805.903 252.15 806.37 251.614 806.706C251.077 807.042 250.435 807.21 249.689 807.21ZM249.689 806.223C250.529 806.223 251.154 805.945 251.565 805.39C251.975 804.83 252.181 804.104 252.181 803.213C252.181 802.298 251.973 801.57 251.558 801.029C251.147 800.488 250.524 800.217 249.689 800.217C249.124 800.217 248.657 800.345 248.289 800.602C247.925 800.854 247.652 801.206 247.47 801.659C247.292 802.107 247.204 802.625 247.204 803.213C247.204 804.123 247.414 804.853 247.834 805.404C248.254 805.95 248.872 806.223 249.689 806.223ZM257.953 798.544C257.622 798.544 257.318 798.462 257.043 798.299C256.768 798.136 256.548 797.919 256.385 797.648C256.226 797.373 256.147 797.069 256.147 796.738H257.001C257.001 796.999 257.094 797.223 257.281 797.41C257.468 797.597 257.692 797.69 257.953 797.69C258.219 797.69 258.443 797.597 258.625 797.41C258.812 797.223 258.905 796.999 258.905 796.738H259.759C259.759 797.069 259.677 797.373 259.514 797.648C259.355 797.919 259.138 798.136 258.863 798.299C258.588 798.462 258.284 798.544 257.953 798.544ZM260.823 799.44V807H259.822V801.113L255.678 807H254.81V799.44H255.811V805.278L259.962 799.44H260.823ZM264.839 807V800.392H262.158V799.44H268.549V800.392H265.868V807H264.839ZM275.889 799.44V807H274.888V801.113L270.744 807H269.876V799.44H270.877V805.278L275.028 799.44H275.889Z" fill="#4A739C"/>
<rect width="390" height="20" transform="translate(0 824)" fill="#F7FAFC"/>
</g>
<defs>
<clipPath id="clip0_27_58">
<rect width="390" height="844" fill="white"/>
</clipPath>
<clipPath id="clip1_27_58">
<rect width="24" height="24" fill="white" transform="translate(16 28)"/>
</clipPath>
<clipPath id="clip2_27_58">
<rect width="168" height="24" fill="white" transform="translate(111 416)"/>
</clipPath>
</defs>
</svg>
